<svg version="1.1" id="Layer_1" xmlns="http://www.w3.org/2000/svg" xmlns:xlink="http://www.w3.org/1999/xlink" x="0px" y="0px"
	 width="100%" viewBox="0 0 800 800" enable-background="new 0 0 800 800" xml:space="preserve">
<path fill="#FFFFFF" opacity="1.000000" stroke="none" 
	d="
M511.000000,801.000000 
	C340.666656,801.000000 170.833328,801.000000 1.000000,801.000000 
	C1.000000,534.333313 1.000000,267.666656 1.000000,1.000000 
	C267.666656,1.000000 534.333313,1.000000 801.000000,1.000000 
	C801.000000,267.666656 801.000000,534.333313 801.000000,801.000000 
	C704.500000,801.000000 608.000000,801.000000 511.000000,801.000000 
M180.083801,406.791992 
	C161.807358,406.758972 143.530853,406.697479 125.254654,406.749695 
	C123.865257,406.753662 122.478165,407.564423 121.016678,408.913910 
	C121.016678,411.833221 121.016678,414.752533 121.016678,418.070526 
	C155.331421,418.070526 188.939285,418.057892 222.547104,418.085785 
	C226.984146,418.089478 225.919006,414.871216 225.956131,412.408997 
	C225.994171,409.886047 226.838791,406.783844 222.449966,406.816101 
	C208.637512,406.917664 194.824265,406.914703 180.083801,406.791992 
M556.011902,520.623291 
	C557.509644,519.069214 558.893677,517.382935 560.522888,515.981873 
	C574.615967,503.862305 588.734131,491.771729 602.882935,479.717285 
	C615.133179,469.280334 627.473145,458.948395 639.700439,448.484741 
	C653.422241,436.742096 667.062134,424.903717 680.942322,412.930511 
	C679.559021,411.237885 678.144043,409.833771 677.121643,408.186035 
	C675.127747,404.972534 673.150391,404.008667 670.140137,407.152222 
	C667.969421,409.419098 665.403076,411.308838 662.999878,413.351166 
	C645.803650,427.965240 628.571594,442.537354 611.414612,457.197357 
	C594.253723,471.860748 577.208862,486.660187 560.011414,501.280304 
	C556.662659,504.127228 552.846680,506.424591 548.879761,508.339325 
	C538.797241,489.067078 528.714661,469.794800 519.102417,450.021912 
	C541.417358,438.584900 563.732300,427.147919 586.407776,415.526123 
	C584.470642,411.882080 582.810181,408.758362 581.051453,405.449860 
	C569.079834,411.540039 557.836853,417.307434 546.550049,422.987854 
	C535.412537,428.593201 524.230652,434.110535 512.686218,438.950928 
	C508.106720,430.294189 503.527222,421.637451 499.061768,412.190399 
	C499.996979,410.244873 500.877563,408.270844 501.875366,406.357941 
	C533.804321,345.147461 565.745605,283.943420 597.678894,222.735184 
	C598.638794,220.895340 599.532410,219.020935 600.562988,216.949585 
	C596.967102,215.100143 593.911987,213.528854 590.648499,211.850403 
	C589.633972,213.660950 588.794128,215.072235 588.035645,216.525925 
	C564.640259,261.361481 541.281799,306.216278 517.848999,351.032227 
	C509.377716,367.233795 500.731354,383.343811 491.739319,398.836456 
	C484.640503,385.255676 477.514435,371.689087 470.448517,358.091217 
	C455.549896,329.419861 440.682861,300.732086 426.607697,272.042633 
	C461.239136,279.200378 495.870575,286.358124 530.705933,293.557983 
	C531.513550,289.637451 532.202759,286.291962 532.969971,282.567749 
	C529.927612,281.913788 527.363281,281.349365 524.793335,280.812103 
	C489.309967,273.394409 453.825836,265.980408 418.144958,257.904938 
	C412.900055,247.811508 407.655182,237.718079 402.268829,227.352417 
	C398.707764,229.198502 395.565826,230.827316 392.238495,232.552231 
	C396.331146,240.518845 400.180420,248.011703 403.078125,255.518417 
	C392.467743,253.244370 381.857361,250.970322 371.554688,247.990417 
	C383.367889,210.913788 395.181091,173.837158 407.110962,136.394272 
	C403.064056,135.144241 399.668915,134.095551 395.990356,132.959305 
	C383.879852,171.153458 371.949677,208.779022 359.186646,246.402206 
	C306.605011,235.505005 254.023392,224.607803 201.291321,213.679413 
	C200.487930,217.748184 199.823959,221.110779 199.106613,224.743713 
	C222.723480,229.654999 245.856476,234.443527 268.979462,239.279831 
	C298.152985,245.381622 327.318359,251.522369 356.187256,258.418823 
	C355.869507,259.363037 355.538696,260.303040 355.235901,261.252014 
	C341.250214,305.082886 327.266937,348.914551 312.737427,392.060211 
	C300.673523,354.818268 288.609589,317.576324 276.485901,280.149841 
	C272.574951,281.443970 269.316345,282.522247 265.807159,283.683411 
	C266.248352,285.426697 266.498047,286.703552 266.893555,287.933533 
	C276.209869,316.905975 285.498901,345.887329 294.891449,374.835083 
	C298.834167,386.986420 303.002106,399.064667 307.074585,411.940186 
	C306.805664,413.068237 306.608124,414.218964 306.257385,415.320984 
	C297.774353,441.974304 289.267609,468.620026 280.781372,495.272278 
	C275.941193,510.473694 271.129669,525.684204 266.182556,541.277161 
	C269.967163,542.485352 273.389740,543.577942 277.188141,544.790527 
	C289.167389,507.182739 301.031769,469.935577 313.472504,433.215179 
	C319.389801,451.491943 325.337921,469.758789 331.213745,488.048889 
	C335.266327,500.663696 339.218842,513.310669 342.785339,526.519104 
	C341.784821,527.107239 340.812225,527.750244 339.779724,528.275635 
	C294.526031,551.300598 249.266754,574.314758 204.010025,597.333801 
	C202.417191,598.143982 200.843719,598.992371 198.921921,600.001038 
	C200.801392,603.580017 202.458893,606.736328 204.188812,610.030579 
	C206.241837,609.035156 207.742523,608.338379 209.216278,607.588562 
	C250.464294,586.603027 291.701050,565.595276 332.966705,544.644531 
	C337.837891,542.171448 342.865356,540.006042 347.897217,538.554688 
	C348.239777,540.004517 348.487335,541.484680 348.939301,542.899597 
	C354.751770,561.097900 360.572693,579.293518 366.433105,597.476440 
	C373.211060,618.506226 380.016022,639.527222 386.837982,660.542725 
	C389.897217,669.967041 393.026337,679.368652 396.190521,688.983643 
	C400.156769,687.684570 403.435669,686.610596 407.071991,685.419617 
	C404.117859,676.090149 401.304504,667.091736 398.419800,658.116272 
	C389.371674,629.963745 380.341064,601.805420 371.213074,573.678772 
	C366.754852,559.941345 362.095947,546.269043 358.008087,532.056641 
	C364.189270,528.848206 370.343781,525.587036 376.556427,522.440674 
	C399.939667,510.598480 423.341797,498.793640 446.411194,487.830627 
	C428.375122,522.456970 410.339050,557.083252 392.170074,591.964844 
	C395.802490,593.835571 398.862579,595.411499 402.168549,597.114136 
	C403.170654,595.309814 403.996613,593.896423 404.754150,592.447266 
	C412.390472,577.838562 420.039490,563.236389 427.638397,548.608215 
	C439.840881,525.118103 452.008209,501.609772 464.708832,477.656464 
	C479.337280,470.323303 493.965759,462.990143 508.938812,456.387726 
	C519.399719,476.508820 529.860596,496.629944 540.133484,517.464294 
	C532.751038,524.190552 525.368591,530.916809 517.730835,537.875671 
	C520.311951,540.828186 522.619141,543.467346 525.014771,546.207703 
	C527.905457,543.785828 530.256042,541.705688 532.722717,539.773865 
	C537.359680,536.142273 542.063660,532.596313 547.107727,529.653015 
	C561.201172,556.624023 575.294617,583.594971 589.589966,610.952393 
	C593.066589,609.164185 596.251465,607.526062 599.629456,605.788635 
	C584.843994,577.350830 570.264648,549.309387 556.011902,520.623291 
z"/>
<path fill="#FAB143" opacity="1.000000" stroke="none" 
	d="
M508.594238,455.656982 
	C493.965759,462.990143 479.337280,470.323303 464.085815,477.900116 
	C457.887451,481.087433 452.312134,484.031097 446.736816,486.974792 
	C423.341797,498.793640 399.939667,510.598480 376.556427,522.440674 
	C370.343781,525.587036 364.189270,528.848206 357.436890,532.402100 
	C353.850616,534.397766 350.835510,536.047913 347.820374,537.697998 
	C342.865356,540.006042 337.837891,542.171448 332.966705,544.644531 
	C291.701050,565.595276 250.464294,586.603027 209.216278,607.588562 
	C207.742523,608.338379 206.241837,609.035156 204.188812,610.030579 
	C202.458893,606.736328 200.801392,603.580017 198.921921,600.001038 
	C200.843719,598.992371 202.417191,598.143982 204.010025,597.333801 
	C249.266754,574.314758 294.526031,551.300598 339.779724,528.275635 
	C340.812225,527.750244 341.784821,527.107239 343.340454,526.214111 
	C347.289825,524.206909 350.684082,522.504639 354.390717,520.677002 
	C375.619385,509.933655 396.555786,499.354980 417.444580,488.683167 
	C430.628174,481.947815 443.740601,475.073181 457.259338,468.221191 
	C463.349548,465.264862 469.065338,462.348358 475.153870,459.314880 
	C484.683075,454.443939 493.839539,449.689941 503.345795,444.888489 
	C506.819794,443.116150 509.944000,441.391327 513.068237,439.666504 
	C524.230652,434.110535 535.412537,428.593201 546.550049,422.987854 
	C557.836853,417.307434 569.079834,411.540039 581.051453,405.449860 
	C582.810181,408.758362 584.470642,411.882080 586.407776,415.526123 
	C563.732300,427.147919 541.417358,438.584900 518.525269,450.355591 
	C514.830139,452.345184 511.712189,454.001068 508.594238,455.656982 
z"/>
<path fill="#0BADED" opacity="1.000000" stroke="none" 
	d="
M418.341919,258.565521 
	C453.825836,265.980408 489.309967,273.394409 524.793335,280.812103 
	C527.363281,281.349365 529.927612,281.913788 532.969971,282.567749 
	C532.202759,286.291962 531.513550,289.637451 530.705933,293.557983 
	C495.870575,286.358124 461.239136,279.200378 425.838318,271.947937 
	C420.494873,270.937134 415.920807,270.020996 410.957581,268.927734 
	C396.195251,265.845001 381.822052,262.939453 367.089783,259.827545 
	C363.316254,258.962891 359.901733,258.304596 356.487244,257.646301 
	C327.318359,251.522369 298.152985,245.381622 268.979462,239.279831 
	C245.856476,234.443527 222.723480,229.654999 199.106613,224.743713 
	C199.823959,221.110779 200.487930,217.748184 201.291321,213.679413 
	C254.023392,224.607803 306.605011,235.505005 359.926971,246.550049 
	C364.193848,247.364029 367.720428,248.030151 371.246979,248.696274 
	C381.857361,250.970322 392.467743,253.244370 403.828613,255.627289 
	C409.166718,256.679291 413.754333,257.622406 418.341919,258.565521 
z"/>
<path fill="#FBB142" opacity="1.000000" stroke="none" 
	d="
M356.337250,258.032562 
	C359.901733,258.304596 363.316254,258.962891 366.995789,260.226929 
	C366.883759,262.281097 366.573090,263.750671 366.119873,265.174896 
	C352.891510,306.744507 339.618500,348.299896 326.435333,389.883820 
	C323.926910,397.796143 321.764923,405.818298 319.206909,414.041992 
	C316.945892,420.425598 314.921021,426.557007 312.896149,432.688416 
	C301.031769,469.935577 289.167389,507.182739 277.188141,544.790527 
	C273.389740,543.577942 269.967163,542.485352 266.182556,541.277161 
	C271.129669,525.684204 275.941193,510.473694 280.781372,495.272278 
	C289.267609,468.620026 297.774353,441.974304 306.257385,415.320984 
	C306.608124,414.218964 306.805664,413.068237 307.331573,411.289978 
	C309.486816,404.675201 311.385101,398.710663 313.283386,392.746124 
	C327.266937,348.914551 341.250214,305.082886 355.235901,261.252014 
	C355.538696,260.303040 355.869507,259.363037 356.337250,258.032562 
z"/>
<path fill="#0BADED" opacity="1.000000" stroke="none" 
	d="
M474.781128,459.431885 
	C469.065338,462.348358 463.349548,465.264862 457.346252,467.847412 
	C463.707764,454.757202 470.394318,442.020294 476.988678,429.235840 
	C479.928772,423.535858 482.683441,417.740173 485.726044,411.741974 
	C488.008179,407.495880 490.086517,403.495758 492.164856,399.495605 
	C500.731354,383.343811 509.377716,367.233795 517.848999,351.032227 
	C541.281799,306.216278 564.640259,261.361481 588.035645,216.525925 
	C588.794128,215.072235 589.633972,213.660950 590.648499,211.850403 
	C593.911987,213.528854 596.967102,215.100143 600.562988,216.949585 
	C599.532410,219.020935 598.638794,220.895340 597.678894,222.735184 
	C565.745605,283.943420 533.804321,345.147461 501.875366,406.357941 
	C500.877563,408.270844 499.996979,410.244873 498.764160,412.748474 
	C496.522675,417.208588 494.578735,421.110626 492.366730,425.195190 
	C490.133484,429.024780 488.083679,432.629242 486.220764,436.327820 
	C482.355011,444.002716 478.588440,451.727570 474.781128,459.431885 
z"/>
<path fill="#E7B2D1" opacity="1.000000" stroke="none" 
	d="
M546.739807,529.014771 
	C542.063660,532.596313 537.359680,536.142273 532.722717,539.773865 
	C530.256042,541.705688 527.905457,543.785828 525.014771,546.207703 
	C522.619141,543.467346 520.311951,540.828186 517.730835,537.875671 
	C525.368591,530.916809 532.751038,524.190552 540.557007,517.179932 
	C543.735779,514.255615 546.491028,511.615509 549.246216,508.975433 
	C552.846680,506.424591 556.662659,504.127228 560.011414,501.280304 
	C577.208862,486.660187 594.253723,471.860748 611.414612,457.197357 
	C628.571594,442.537354 645.803650,427.965240 662.999878,413.351166 
	C665.403076,411.308838 667.969421,409.419098 670.140137,407.152222 
	C673.150391,404.008667 675.127747,404.972534 677.121643,408.186035 
	C678.144043,409.833771 679.559021,411.237885 680.942322,412.930511 
	C667.062134,424.903717 653.422241,436.742096 639.700439,448.484741 
	C627.473145,458.948395 615.133179,469.280334 602.882935,479.717285 
	C588.734131,491.771729 574.615967,503.862305 560.522888,515.981873 
	C558.893677,517.382935 557.509644,519.069214 555.520630,520.903442 
	C552.266174,523.794006 549.502991,526.404419 546.739807,529.014771 
z"/>
<path fill="#DFA0C8" opacity="1.000000" stroke="none" 
	d="
M347.858795,538.126343 
	C350.835510,536.047913 353.850616,534.397766 357.196808,532.657471 
	C362.095947,546.269043 366.754852,559.941345 371.213074,573.678772 
	C380.341064,601.805420 389.371674,629.963745 398.419800,658.116272 
	C401.304504,667.091736 404.117859,676.090149 407.071991,685.419617 
	C403.435669,686.610596 400.156769,687.684570 396.190521,688.983643 
	C393.026337,679.368652 389.897217,669.967041 386.837982,660.542725 
	C380.016022,639.527222 373.211060,618.506226 366.433105,597.476440 
	C360.572693,579.293518 354.751770,561.097900 348.939301,542.899597 
	C348.487335,541.484680 348.239777,540.004517 347.858795,538.126343 
z"/>
<path fill="#56469C" opacity="1.000000" stroke="none" 
	d="
M491.952087,399.166016 
	C490.086517,403.495758 488.008179,407.495880 485.634827,411.378296 
	C484.275665,409.187988 483.221832,407.109955 482.145691,405.043579 
	C458.547546,359.729889 434.946899,314.417511 411.346741,269.104889 
	C415.920807,270.020996 420.494873,270.937134 425.435913,271.952148 
	C440.682861,300.732086 455.549896,329.419861 470.448517,358.091217 
	C477.514435,371.689087 484.640503,385.255676 491.952087,399.166016 
z"/>
<path fill="#0BADED" opacity="1.000000" stroke="none" 
	d="
M446.573975,487.402710 
	C452.312134,484.031097 457.887451,481.087433 463.826569,478.126434 
	C452.008209,501.609772 439.840881,525.118103 427.638397,548.608215 
	C420.039490,563.236389 412.390472,577.838562 404.754150,592.447266 
	C403.996613,593.896423 403.170654,595.309814 402.168549,597.114136 
	C398.862579,595.411499 395.802490,593.835571 392.170074,591.964844 
	C410.339050,557.083252 428.375122,522.456970 446.573975,487.402710 
z"/>
<path fill="#DFA0C8" opacity="1.000000" stroke="none" 
	d="
M313.010406,392.403168 
	C311.385101,398.710663 309.486816,404.675201 307.328125,410.907959 
	C303.002106,399.064667 298.834167,386.986420 294.891449,374.835083 
	C285.498901,345.887329 276.209869,316.905975 266.893555,287.933533 
	C266.498047,286.703552 266.248352,285.426697 265.807159,283.683411 
	C269.316345,282.522247 272.574951,281.443970 276.485901,280.149841 
	C288.609589,317.576324 300.673523,354.818268 313.010406,392.403168 
z"/>
<path fill="#FAB143" opacity="1.000000" stroke="none" 
	d="
M371.400818,248.343353 
	C367.720428,248.030151 364.193848,247.364029 360.343384,246.551254 
	C371.949677,208.779022 383.879852,171.153458 395.990356,132.959305 
	C399.668915,134.095551 403.064056,135.144241 407.110962,136.394272 
	C395.181091,173.837158 383.367889,210.913788 371.400818,248.343353 
z"/>
<path fill="#DFA0C8" opacity="1.000000" stroke="none" 
	d="
M313.184326,432.951782 
	C314.921021,426.557007 316.945892,420.425598 319.392761,414.412750 
	C331.235962,449.954987 342.657135,485.378693 354.078308,520.802368 
	C350.684082,522.504639 347.289825,524.206909 343.555847,525.926208 
	C339.218842,513.310669 335.266327,500.663696 331.213745,488.048889 
	C325.337921,469.758789 319.389801,451.491943 313.184326,432.951782 
z"/>
<path fill="#56469C" opacity="1.000000" stroke="none" 
	d="
M546.923767,529.333862 
	C549.502991,526.404419 552.266174,523.794006 555.357300,521.225830 
	C570.264648,549.309387 584.843994,577.350830 599.629456,605.788635 
	C596.251465,607.526062 593.066589,609.164185 589.589966,610.952393 
	C575.294617,583.594971 561.201172,556.624023 546.923767,529.333862 
z"/>
<path fill="#57489C" opacity="1.000000" stroke="none" 
	d="
M181.011337,406.952209 
	C194.824265,406.914703 208.637512,406.917664 222.449966,406.816101 
	C226.838791,406.783844 225.994171,409.886047 225.956131,412.408997 
	C225.919006,414.871216 226.984146,418.089478 222.547104,418.085785 
	C188.939285,418.057892 155.331421,418.070526 121.016678,418.070526 
	C121.016678,414.752533 121.016678,411.833221 121.515999,408.458832 
	C139.966461,408.003296 157.917709,408.031281 175.868546,407.956665 
	C177.584167,407.949524 179.297134,407.302307 181.011337,406.952209 
z"/>
<path fill="#56469C" opacity="1.000000" stroke="none" 
	d="
M549.062988,508.657410 
	C546.491028,511.615509 543.735779,514.255615 540.651001,516.823364 
	C529.860596,496.629944 519.399719,476.508820 508.766510,456.022339 
	C511.712189,454.001068 514.830139,452.345184 518.290161,450.605927 
	C528.714661,469.794800 538.797241,489.067078 549.062988,508.657410 
z"/>
<path fill="#56469C" opacity="1.000000" stroke="none" 
	d="
M418.243439,258.235229 
	C413.754333,257.622406 409.166718,256.679291 404.304413,255.620361 
	C400.180420,248.011703 396.331146,240.518845 392.238495,232.552231 
	C395.565826,230.827316 398.707764,229.198502 402.268829,227.352417 
	C407.655182,237.718079 412.900055,247.811508 418.243439,258.235229 
z"/>
<path fill="#56469C" opacity="1.000000" stroke="none" 
	d="
M492.634796,425.012695 
	C494.578735,421.110626 496.522675,417.208588 498.707153,413.143616 
	C503.527222,421.637451 508.106720,430.294189 512.877197,439.308716 
	C509.944000,441.391327 506.819794,443.116150 503.212280,444.571228 
	C499.364258,437.871918 495.999512,431.442322 492.634796,425.012695 
z"/>
<path fill="#56469C" opacity="1.000000" stroke="none" 
	d="
M180.547577,406.872101 
	C179.297134,407.302307 177.584167,407.949524 175.868546,407.956665 
	C157.917709,408.031281 139.966461,408.003296 121.552658,408.001953 
	C122.478165,407.564423 123.865257,406.753662 125.254654,406.749695 
	C143.530853,406.697479 161.807358,406.758972 180.547577,406.872101 
z"/>
<path fill="#FFFEFE" opacity="1.000000" stroke="none" 
	d="
M354.390717,520.677002 
	C342.657135,485.378693 331.235962,449.954987 319.628967,414.160522 
	C321.764923,405.818298 323.926910,397.796143 326.435333,389.883820 
	C339.618500,348.299896 352.891510,306.744507 366.119873,265.174896 
	C366.573090,263.750671 366.883759,262.281097 367.354858,260.433289 
	C381.822052,262.939453 396.195251,265.845001 410.957611,268.927734 
	C434.946899,314.417511 458.547546,359.729889 482.145691,405.043579 
	C483.221832,407.109955 484.275665,409.187988 485.431091,411.624268 
	C482.683441,417.740173 479.928772,423.535858 476.988678,429.235840 
	C470.394318,442.020294 463.707764,454.757202 456.971863,467.887268 
	C443.740601,475.073181 430.628174,481.947815 417.444580,488.683167 
	C396.555786,499.354980 375.619385,509.933655 354.390717,520.677002 
z"/>
<path fill="#F8FAF9" opacity="1.000000" stroke="none" 
	d="
M492.366730,425.195190 
	C495.999512,431.442322 499.364258,437.871918 502.862518,444.618744 
	C493.839539,449.689941 484.683075,454.443939 475.153870,459.314880 
	C478.588440,451.727570 482.355011,444.002716 486.220764,436.327820 
	C488.083679,432.629242 490.133484,429.024780 492.366730,425.195190 
z"/>
</svg>